name ./resultDataOpenSim/trcMotMarkerGrf/sub06/grf-14-07.mot
datacolumns 19
datarows 22
range 1.05200000 1.13600000
endheader

                time	     ground_force_vx	     ground_force_vy	     ground_force_vz	     ground_force_px	     ground_force_py	     ground_force_pz	   l_ground_force_vx	   l_ground_force_vy	   l_ground_force_vz	   l_ground_force_px	   l_ground_force_py	   l_ground_force_pz	     ground_torque_x	     ground_torque_y	     ground_torque_z	   l_ground_torque_x	   l_ground_torque_y	   l_ground_torque_z	
          1.05200000	          0.00000000	          0.00000000	          0.00000000	          0.00000000	          0.00000000	          0.00000000	         92.30385126	        557.76550593	          7.75967468	          0.10081863	         -0.07500200	         -0.00316545	          0.00000000	          0.00000000	          0.00000000	          0.00000000	         -0.30281773	          0.00000000	
          1.05600000	          0.00000000	          0.00000000	          0.00000000	          0.00000000	          0.00000000	          0.00000000	         97.79805776	        575.58435719	          6.41978663	          0.10134318	         -0.07500200	         -0.00258119	          0.00000000	          0.00000000	          0.00000000	          0.00000000	         -0.45017876	          0.00000000	
          1.06000000	          0.00000000	          0.00000000	          0.00000000	          0.00000000	          0.00000000	          0.00000000	        103.59904349	        593.17532986	          4.85262369	          0.10187964	         -0.07500200	         -0.00202001	          0.00000000	          0.00000000	          0.00000000	          0.00000000	         -0.60567183	          0.00000000	
          1.06400000	          0.00000000	          0.00000000	          0.00000000	          0.00000000	          0.00000000	          0.00000000	        109.71904475	        610.17486700	          3.16290786	          0.10242238	         -0.07500200	         -0.00148934	          0.00000000	          0.00000000	          0.00000000	          0.00000000	         -0.76114340	          0.00000000	
          1.06800000	          0.00000000	          0.00000000	          0.00000000	          0.00000000	          0.00000000	          0.00000000	        116.15752443	        626.16756993	          1.45994687	          0.10295522	         -0.07500200	         -0.00099334	          0.00000000	          0.00000000	          0.00000000	          0.00000000	         -0.90733752	          0.00000000	
          1.07200000	          0.00000000	          0.00000000	          0.00000000	          0.00000000	          0.00000000	          0.00000000	        122.88505020	        640.78069695	         -0.15084267	          0.10348197	         -0.07500200	         -0.00052701	          0.00000000	          0.00000000	          0.00000000	          0.00000000	         -1.03540449	          0.00000000	
          1.07600000	          0.00000000	          0.00000000	          0.00000000	          0.00000000	          0.00000000	          0.00000000	        129.83109106	        653.71618433	         -1.57407965	          0.10400590	         -0.07500200	         -0.00008270	          0.00000000	          0.00000000	          0.00000000	          0.00000000	         -1.13853349	          0.00000000	
          1.08000000	          0.00000000	          0.00000000	          0.00000000	          0.00000000	          0.00000000	          0.00000000	        136.89110450	        664.69905726	         -2.74913403	          0.10451055	         -0.07500200	          0.00033747	          0.00000000	          0.00000000	          0.00000000	          0.00000000	         -1.21333521	          0.00000000	
          1.08400000	          0.00000000	          0.00000000	          0.00000000	          0.00000000	          0.00000000	          0.00000000	        143.95638088	        673.44935531	         -3.67687979	          0.10498357	         -0.07500200	          0.00072746	          0.00000000	          0.00000000	          0.00000000	          0.00000000	         -1.26053648	          0.00000000	
          1.08800000	          0.00000000	          0.00000000	          0.00000000	          0.00000000	          0.00000000	          0.00000000	        150.93411620	        679.72390841	         -4.41542027	          0.10545303	         -0.07500200	          0.00109749	          0.00000000	          0.00000000	          0.00000000	          0.00000000	         -1.28465738	          0.00000000	
          1.09200000	          0.00000000	          0.00000000	          0.00000000	          0.00000000	          0.00000000	          0.00000000	        157.74175510	        683.36942477	         -5.04714671	          0.10598013	         -0.07500192	          0.00147177	          0.00000000	          0.00000000	          0.00000000	          0.00000000	         -1.29270145	          0.00000000	
          1.09600000	          0.00000000	          0.00000000	          0.00000000	          0.00000000	          0.00000000	          0.00000000	        164.29437009	        684.31144290	         -5.64653075	          0.10659180	         -0.07500100	          0.00186078	          0.00000000	          0.00000000	          0.00000000	          0.00000000	         -1.29231675	          0.00000000	
          1.10000000	          0.00000000	          0.00000000	          0.00000000	          0.00000000	          0.00000000	          0.00000000	        170.49201412	        682.45193737	         -6.26151463	          0.10725712	         -0.07500100	          0.00225120	          0.00000000	          0.00000000	          0.00000000	          0.00000000	         -1.29008720	          0.00000000	
          1.10400000	          0.00000000	          0.00000000	          0.00000000	          0.00000000	          0.00000000	          0.00000000	        176.21067865	        677.57874261	         -6.90389757	          0.10792181	         -0.07500100	          0.00262000	          0.00000000	          0.00000000	          0.00000000	          0.00000000	         -1.29047492	          0.00000000	
          1.10800000	          0.00000000	          0.00000000	          0.00000000	          0.00000000	          0.00000000	          0.00000000	        181.29812119	        669.39313159	         -7.55275370	          0.10852675	         -0.07500100	          0.00294643	          0.00000000	          0.00000000	          0.00000000	          0.00000000	         -1.29559858	          0.00000000	
          1.11200000	          0.00000000	          0.00000000	          0.00000000	          0.00000000	          0.00000000	          0.00000000	        185.56611389	        657.56284759	         -8.17284520	          0.10905058	         -0.07500012	          0.00322312	          0.00000000	          0.00000000	          0.00000000	          0.00000000	         -1.30568504	          0.00000000	
          1.11600000	          0.00000000	          0.00000000	          0.00000000	          0.00000000	          0.00000000	          0.00000000	        188.78491662	        641.70486697	         -8.73611187	          0.10953013	         -0.07500000	          0.00346399	          0.00000000	          0.00000000	          0.00000000	          0.00000000	         -1.31977785	          0.00000000	
          1.12000000	          0.00000000	          0.00000000	          0.00000000	          0.00000000	          0.00000000	          0.00000000	        190.68879569	        621.41666747	         -9.23674833	          0.11004189	         -0.07499920	          0.00369504	          0.00000000	          0.00000000	          0.00000000	          0.00000000	         -1.33625668	          0.00000000	
          1.12400000	          0.00000000	          0.00000000	          0.00000000	          0.00000000	          0.00000000	          0.00000000	        190.98853666	        596.41555303	         -9.69478488	          0.11065155	         -0.07499900	          0.00393762	          0.00000000	          0.00000000	          0.00000000	          0.00000000	         -1.35297684	          0.00000000	
          1.12800000	          0.00000000	          0.00000000	          0.00000000	          0.00000000	          0.00000000	          0.00000000	        189.38141829	        566.62652698	        -10.14371860	          0.11138305	         -0.07499828	          0.00418948	          0.00000000	          0.00000000	          0.00000000	          0.00000000	         -1.36716357	          0.00000000	
          1.13200000	          0.00000000	          0.00000000	          0.00000000	          0.00000000	          0.00000000	          0.00000000	        185.55856547	        532.16487304	        -10.60577119	          0.11226131	         -0.07499800	          0.00444398	          0.00000000	          0.00000000	          0.00000000	          0.00000000	         -1.37530392	          0.00000000	
          1.13600000	          0.00000000	          0.00000000	          0.00000000	          0.00000000	          0.00000000	          0.00000000	        179.23290065	        493.34620929	        -11.07366577	          0.11332229	         -0.07499736	          0.00471052	          0.00000000	          0.00000000	          0.00000000	          0.00000000	         -1.37318084	          0.00000000	
